<?xml version="1.0" standalone="no"?>
<!DOCTYPE svg PUBLIC "-//W3C//DTD SVG 20010904//EN"
 "http://www.w3.org/TR/2001/REC-SVG-20010904/DTD/svg10.dtd">
<svg version="1.0" xmlns="http://www.w3.org/2000/svg"
 width="260.000000pt" height="260.000000pt" viewBox="0 0 260.000000 260.000000"
 preserveAspectRatio="xMidYMid meet">
<metadata>
Created by potrace 1.14, written by Peter Selinger 2001-2017
</metadata>
<g transform="translate(0.000000,260.000000) scale(0.100000,-0.100000)"
fill="#000000" stroke="none">
<path d="M202 1788 l-1 -444 117 -150 c419 -537 614 -784 620 -785 31 -4 715
-3 717 1 3 4 -49 71 -185 240 -15 19 -150 188 -300 375 -149 187 -276 347
-283 355 -7 8 -158 197 -336 420 -178 223 -329 411 -336 419 -11 11 -13 -70
-13 -431z"/>
<path d="M2125 1894 c-143 -179 -270 -337 -282 -352 -122 -151 -413 -518 -413
-522 0 -10 719 -5 729 5 5 6 61 79 124 163 l115 152 0 440 c0 242 -3 440 -6
440 -4 0 -124 -147 -267 -326z"/>
</g>
</svg>
