<?xml version="1.0" standalone="no"?>
<!DOCTYPE svg PUBLIC "-//W3C//DTD SVG 20010904//EN"
 "http://www.w3.org/TR/2001/REC-SVG-20010904/DTD/svg10.dtd">
<svg version="1.0" xmlns="http://www.w3.org/2000/svg"
 width="512.000000pt" height="512.000000pt" viewBox="0 0 512.000000 512.000000"
 preserveAspectRatio="xMidYMid meet">
<metadata>
Created by potrace 1.14, written by Peter Selinger 2001-2017
</metadata>
<g transform="translate(0.000000,512.000000) scale(0.100000,-0.100000)"
fill="#000000" stroke="none">
<path d="M1417 5113 c-2 -5 -3 -213 -3 -464 l1 -457 80 -102 c44 -56 88 -112
98 -123 10 -12 57 -69 103 -127 46 -58 147 -184 225 -280 77 -96 158 -197 179
-225 50 -66 78 -95 93 -96 7 0 171 -1 365 -2 365 -2 395 1 360 37 -8 7 -70 85
-139 171 -68 87 -185 233 -259 325 -74 92 -148 185 -165 206 -16 21 -61 77
-100 125 -38 48 -110 138 -160 200 -49 63 -97 122 -105 132 -8 11 -20 24 -25
31 -6 6 -71 88 -145 181 -74 94 -168 211 -208 260 -40 50 -79 97 -85 105 -81
104 -100 122 -110 103z"/>
<path d="M3618 5042 c-34 -42 -97 -120 -139 -172 -183 -230 -372 -468 -398
-500 -16 -19 -79 -98 -140 -175 -61 -77 -119 -149 -128 -160 -48 -56 -113
-147 -109 -153 2 -4 171 -7 375 -7 314 0 373 3 384 15 36 39 226 279 234 296
7 15 11 885 4 927 -3 19 -24 1 -83 -71z"/>
<path d="M201 3866 c-7 -8 86 -131 311 -411 176 -220 333 -416 348 -435 15
-19 96 -120 179 -223 210 -261 195 -223 125 -314 -32 -42 -63 -81 -69 -87 -5
-6 -98 -121 -205 -256 -107 -135 -201 -252 -207 -260 -7 -8 -121 -150 -252
-315 -166 -207 -237 -303 -230 -311 6 -8 109 -11 370 -11 353 0 362 1 383 21
12 12 68 80 125 151 56 72 110 139 119 150 9 11 51 63 92 115 41 52 77 97 80
100 27 25 403 506 409 523 11 32 7 509 -4 528 -6 9 -23 33 -40 54 -16 21 -70
88 -119 149 -48 61 -101 127 -117 146 -16 19 -87 109 -160 200 -72 91 -141
176 -152 190 -12 14 -44 55 -72 90 -27 36 -55 71 -62 78 -7 8 -26 30 -41 50
-15 21 -37 48 -50 62 l-22 25 -365 1 c-267 1 -367 -1 -374 -10z"/>
<path d="M4191 3870 c-21 -5 -849 -1030 -852 -1054 -6 -48 -4 -496 2 -513 5
-12 160 -212 346 -445 186 -232 343 -430 350 -438 51 -67 119 -148 133 -161
16 -14 64 -16 379 -16 266 0 363 3 371 11 6 9 -3 27 -31 62 -22 27 -45 56 -52
64 -7 8 -218 273 -470 588 -252 316 -460 579 -463 585 -2 7 6 26 18 44 20 28
716 896 759 948 117 138 246 312 238 320 -10 10 -687 15 -728 5z"/>
<path d="M2199 1878 c-17 -3 -34 -10 -38 -15 -3 -5 -150 -189 -326 -409 -354
-442 -330 -412 -379 -472 -20 -24 -37 -47 -37 -50 -4 -19 -6 -900 -2 -914 2
-10 9 -18 14 -18 7 0 150 171 224 269 21 28 296 373 323 406 9 11 105 130 212
265 107 135 197 247 200 250 3 3 38 46 78 96 40 51 79 94 87 98 17 6 -69 112
1038 -1274 68 -85 90 -108 100 -104 16 6 17 931 1 942 -5 4 -37 41 -70 82 -32
41 -65 81 -71 90 -7 8 -108 134 -224 280 -117 146 -224 279 -238 297 -14 17
-51 63 -81 102 -31 39 -66 74 -79 77 -32 9 -690 11 -732 2z"/>
</g>
</svg>
